<svg xmlns="http://www.w3.org/2000/svg" viewBox="0 0 640 320" fill="none">
  <defs>
    <linearGradient id="bg-frontend" x1="0" y1="0" x2="640" y2="320" gradientUnits="userSpaceOnUse">
      <stop stop-color="#0f1a12"/><stop offset="1" stop-color="#1a3320"/>
    </linearGradient>
  </defs>
  <rect width="640" height="320" fill="url(#bg-frontend)"/>
  <rect x="72" y="58" width="300" height="204" rx="16" fill="#16261a" stroke="#43A724" stroke-width="2"/>
  <rect x="92" y="78" width="120" height="12" rx="6" fill="#43A724"/>
  <rect x="92" y="106" width="200" height="8" rx="4" fill="#2d4a32"/>
  <rect x="92" y="126" width="160" height="8" rx="4" fill="#2d4a32"/>
  <rect x="92" y="156" width="90" height="70" rx="10" fill="#43A724" opacity=".35"/>
  <rect x="198" y="156" width="90" height="70" rx="10" fill="#43A724" opacity=".55"/>
  <rect x="304" y="156" width="44" height="70" rx="10" fill="#43A724" opacity=".25"/>
  <rect x="420" y="80" width="148" height="160" rx="18" fill="#101c13" stroke="#43A724" stroke-width="2"/>
  <path d="M450 120h88M450 150h70M450 180h80" stroke="#43A724" stroke-width="6" stroke-linecap="round"/>
  <circle cx="534" cy="210" r="14" fill="#43A724"/>
  <text x="72" y="290" fill="#9fbfa6" font-family="Arial,sans-serif" font-size="18" font-weight="700">FRONTEND · REACT · UI</text>
</svg>
